<svg width="151" height="84" viewBox="0 0 151 84" fill="none" xmlns="http://www.w3.org/2000/svg">
<path d="M17.616 45.56C19.664 45.56 21.456 45.96 22.992 46.76C24.56 47.528 25.776 48.712 26.64 50.312C27.536 51.912 27.984 53.928 27.984 56.36V71H24.576V56.696C24.576 54.04 23.904 52.04 22.56 50.696C21.248 49.32 19.392 48.632 16.992 48.632C15.2 48.632 13.632 49 12.288 49.736C10.976 50.44 9.952 51.48 9.216 52.856C8.512 54.2 8.16 55.832 8.16 57.752V71H4.752V35.384H8.16V52.712L7.488 51.416C8.288 49.592 9.568 48.168 11.328 47.144C13.088 46.088 15.184 45.56 17.616 45.56ZM52.9815 71V65.432L52.8375 64.52V55.208C52.8375 53.064 52.2295 51.416 51.0135 50.264C49.8295 49.112 48.0535 48.536 45.6855 48.536C44.0535 48.536 42.5015 48.808 41.0295 49.352C39.5575 49.896 38.3095 50.616 37.2855 51.512L35.7495 48.968C37.0295 47.88 38.5655 47.048 40.3575 46.472C42.1495 45.864 44.0375 45.56 46.0215 45.56C49.2855 45.56 51.7975 46.376 53.5575 48.008C55.3495 49.608 56.2455 52.056 56.2455 55.352V71H52.9815ZM44.2935 71.24C42.4055 71.24 40.7575 70.936 39.3495 70.328C37.9735 69.688 36.9175 68.824 36.1815 67.736C35.4455 66.616 35.0775 65.336 35.0775 63.896C35.0775 62.584 35.3815 61.4 35.9895 60.344C36.6295 59.256 37.6535 58.392 39.0615 57.752C40.5015 57.08 42.4215 56.744 44.8215 56.744H53.5095V59.288H44.9175C42.4855 59.288 40.7895 59.72 39.8295 60.584C38.9015 61.448 38.4375 62.52 38.4375 63.8C38.4375 65.24 38.9975 66.392 40.1175 67.256C41.2375 68.12 42.8055 68.552 44.8215 68.552C46.7415 68.552 48.3895 68.12 49.7655 67.256C51.1735 66.36 52.1975 65.08 52.8375 63.416L53.6055 65.768C52.9655 67.432 51.8455 68.76 50.2455 69.752C48.6775 70.744 46.6935 71.24 44.2935 71.24ZM78.51 71.24C76.302 71.24 74.318 70.744 72.558 69.752C70.798 68.728 69.406 67.256 68.382 65.336C67.358 63.416 66.846 61.096 66.846 58.376C66.846 55.624 67.358 53.304 68.382 51.416C69.438 49.496 70.846 48.04 72.606 47.048C74.366 46.056 76.334 45.56 78.51 45.56C80.91 45.56 83.054 46.104 84.942 47.192C86.862 48.248 88.366 49.736 89.454 51.656C90.542 53.576 91.086 55.816 91.086 58.376C91.086 60.904 90.542 63.144 89.454 65.096C88.366 67.016 86.862 68.52 84.942 69.608C83.054 70.696 80.91 71.24 78.51 71.24ZM65.502 71V35.384H68.91V53.24L68.43 58.328L68.766 63.416V71H65.502ZM78.27 68.216C80.062 68.216 81.662 67.816 83.07 67.016C84.478 66.184 85.598 65.032 86.43 63.56C87.262 62.056 87.678 60.328 87.678 58.376C87.678 56.392 87.262 54.664 86.43 53.192C85.598 51.72 84.478 50.584 83.07 49.784C81.662 48.952 80.062 48.536 78.27 48.536C76.478 48.536 74.862 48.952 73.422 49.784C72.014 50.584 70.894 51.72 70.062 53.192C69.262 54.664 68.862 56.392 68.862 58.376C68.862 60.328 69.262 62.056 70.062 63.56C70.894 65.032 72.014 66.184 73.422 67.016C74.862 67.816 76.478 68.216 78.27 68.216ZM98.0333 71V45.8H101.441V71H98.0333ZM99.7613 40.232C99.0573 40.232 98.4653 39.992 97.9853 39.512C97.5053 39.032 97.2653 38.456 97.2653 37.784C97.2653 37.112 97.5053 36.552 97.9853 36.104C98.4653 35.624 99.0573 35.384 99.7613 35.384C100.465 35.384 101.057 35.608 101.537 36.056C102.017 36.504 102.257 37.064 102.257 37.736C102.257 38.44 102.017 39.032 101.537 39.512C101.089 39.992 100.497 40.232 99.7613 40.232ZM118.892 71.24C116.524 71.24 114.7 70.6 113.42 69.32C112.14 68.04 111.5 66.232 111.5 63.896V40.232H114.908V63.704C114.908 65.176 115.276 66.312 116.012 67.112C116.78 67.912 117.868 68.312 119.276 68.312C120.78 68.312 122.028 67.88 123.02 67.016L124.22 69.464C123.548 70.072 122.732 70.52 121.772 70.808C120.844 71.096 119.884 71.24 118.892 71.24ZM106.988 48.632V45.8H122.588V48.632H106.988ZM137.192 71.24C135.112 71.24 133.144 70.952 131.288 70.376C129.432 69.768 127.976 69.016 126.92 68.12L128.456 65.432C129.48 66.2 130.792 66.872 132.392 67.448C133.992 67.992 135.672 68.264 137.432 68.264C139.832 68.264 141.56 67.896 142.616 67.16C143.672 66.392 144.2 65.384 144.2 64.136C144.2 63.208 143.896 62.488 143.288 61.976C142.712 61.432 141.944 61.032 140.984 60.776C140.024 60.488 138.952 60.248 137.768 60.056C136.584 59.864 135.4 59.64 134.216 59.384C133.064 59.128 132.008 58.76 131.048 58.28C130.088 57.768 129.304 57.08 128.696 56.216C128.12 55.352 127.832 54.2 127.832 52.76C127.832 51.384 128.216 50.152 128.984 49.064C129.752 47.976 130.872 47.128 132.344 46.52C133.848 45.88 135.672 45.56 137.816 45.56C139.448 45.56 141.08 45.784 142.712 46.232C144.344 46.648 145.688 47.208 146.744 47.912L145.256 50.648C144.136 49.88 142.936 49.336 141.656 49.016C140.376 48.664 139.096 48.488 137.816 48.488C135.544 48.488 133.864 48.888 132.776 49.688C131.72 50.456 131.192 51.448 131.192 52.664C131.192 53.624 131.48 54.376 132.056 54.92C132.664 55.464 133.448 55.896 134.408 56.216C135.4 56.504 136.472 56.744 137.624 56.936C138.808 57.128 139.976 57.368 141.128 57.656C142.312 57.912 143.384 58.28 144.344 58.76C145.336 59.208 146.12 59.864 146.696 60.728C147.304 61.56 147.608 62.664 147.608 64.04C147.608 65.512 147.192 66.792 146.36 67.88C145.56 68.936 144.376 69.768 142.808 70.376C141.272 70.952 139.4 71.24 137.192 71.24Z" fill="white"/>
<rect x="0.5" y="0.5" width="15" height="15" rx="3.5" fill="#18181B" stroke="#27272A"/>
<rect x="20.5" y="0.5" width="15" height="15" rx="3.5" fill="#064E3B" stroke="#164E63"/>
<rect x="40.5" y="0.5" width="15" height="15" rx="3.5" fill="#115E59" stroke="#155E75"/>
<rect x="60.5" y="0.5" width="15" height="15" rx="3.5" fill="#0F766E" stroke="#0E7490"/>
<rect x="80.5" y="0.5" width="15" height="15" rx="3.5" fill="#0D9488" stroke="#0891B2"/>
<rect x="100.5" y="0.5" width="15" height="15" rx="3.5" fill="#14B8A6" stroke="#06B6D4"/>
</svg>
